<?xml version="1.0" encoding="UTF-8"?> <svg xmlns="http://www.w3.org/2000/svg" xmlns:v="https://vecta.io/nano" viewBox="0 0 1000 1000"><circle cx="500" cy="500" r="485.2" fill="#002d3f"></circle><path d="M707 671.1L535.9 500 707 328.9l35.7 35.7L782 218l-146.6 39.3 35.7 35.7L500 464.1 328.9 293l35.7-35.7L218 218l39.3 146.6 35.7-35.7L464.1 500 293 671.1l-35.7-35.7L218 782l146.6-39.3-35.7-35.7L500 535.9 671.1 707l-35.7 35.7L782 782l-39.3-146.6z" fill="#00bcbc"></path><path d="M500 659.3c-42.5 0-82.5-16.6-112.6-46.7-62.1-62.1-62.1-163.2 0-225.3 30.1-30.1 70.1-46.7 112.6-46.7s82.5 16.6 112.6 46.7c62.1 62.1 62.1 163.2 0 225.3-30.1 30.1-70.1 46.7-112.6 46.7z" fill="#fff"></path><path d="M500 352c37.9 0 75.8 14.4 104.7 43.3 57.8 57.8 57.8 151.5 0 209.3C575.8 633.5 537.9 648 500 648s-75.8-14.4-104.7-43.3c-57.8-57.8-57.8-151.5 0-209.3C424.2 366.5 462.1 352 500 352m0-22.6a170.28 170.28 0 0 0-64.2 12.5c-21.2 8.6-40.2 21.2-56.4 37.5-16.3 16.3-28.9 35.3-37.5 56.4-8.3 20.4-12.5 42-12.5 64.2a170.28 170.28 0 0 0 12.5 64.2c8.6 21.2 21.2 40.2 37.5 56.4 16.3 16.3 35.3 28.9 56.4 37.5 20.4 8.3 42 12.5 64.2 12.5a170.28 170.28 0 0 0 64.2-12.5c21.2-8.6 40.2-21.2 56.4-37.5 16.3-16.3 28.9-35.3 37.5-56.4 8.3-20.4 12.5-42 12.5-64.2a170.28 170.28 0 0 0-12.5-64.2c-8.6-21.2-21.2-40.2-37.5-56.4-16.3-16.3-35.3-28.9-56.4-37.5a170.28 170.28 0 0 0-64.2-12.5h0z" fill="#002d3f"></path><path d="M500 586.1c-23 0-44.6-9-60.8-25.2-33.6-33.6-33.6-88.1 0-121.7 16.3-16.3 37.9-25.2 60.8-25.2 23 0 44.6 9 60.8 25.2S586 477.1 586 500c0 23-9 44.6-25.2 60.8S523 586.1 500 586.1z" fill="#f4ba00"></path><path d="M500 425.2c19.1 0 38.3 7.3 52.9 21.9 29.2 29.2 29.2 76.5 0 105.7-14.6 14.6-33.7 21.9-52.9 21.9-19.1 0-38.3-7.3-52.9-21.9-29.2-29.2-29.2-76.5 0-105.7 14.6-14.6 33.8-21.9 52.9-21.9m0-22.5c-26 0-50.4 10.1-68.8 28.5-38 38-38 99.7 0 137.7 18.4 18.4 42.8 28.5 68.8 28.5s50.4-10.1 68.8-28.5 28.5-42.8 28.5-68.8-10.1-50.4-28.5-68.8c-18.4-18.5-42.8-28.6-68.8-28.6h0z" fill="#002d3f"></path></svg> 