<svg data-name="Layer 1" xmlns="http://www.w3.org/2000/svg" viewBox="0 0 36 36"><circle cx="18" cy="18" r="18" fill="#6bb4ff"/><path d="M25.66 17.08a.77.77 0 00-.74.76 6.92 6.92 0 01-10.83 5.81l.65-.09a.74.74 0 00.64-.85.75.75 0 00-.85-.64l-2.42.34a.76.76 0 00-.65.84l.36 2.59a.76.76 0 00.78.65h.07a.74.74 0 00.64-.84l-.11-.79a8.26 8.26 0 004.43 1.5H18a8.42 8.42 0 008.42-8.42.49.49 0 000-.12.75.75 0 00-.76-.74zM21.78 12.15h-.61a.77.77 0 00-.72.78.74.74 0 00.75.72l2.43-.08a.69.69 0 00.52-.24.5.5 0 00.16-.28.69.69 0 000-.53v-2.3a.75.75 0 00-.78-.72.76.76 0 00-.72.78V11a8.43 8.43 0 00-13.24 6.82.75.75 0 00.74.76.74.74 0 00.75-.74 6.93 6.93 0 0110.72-5.69z" fill="#fff"/></svg>